<svg width="230" height="223" viewBox="0 0 230 223" fill="none" xmlns="http://www.w3.org/2000/svg">
<path d="M32.8429 109.023C34.675 108.643 36.389 108.889 37.9848 109.76C39.5686 110.604 40.7288 111.864 41.4656 113.539C42.5285 115.955 42.5227 118.252 41.4481 120.429C40.389 122.566 38.3491 124.299 35.3283 125.628L21.8586 131.552L9.14025 102.636L22.1569 96.9104C25.0952 95.6181 27.6841 95.2823 29.9236 95.9032C32.1906 96.5121 33.8314 97.9698 34.8459 100.277C35.5948 101.979 35.7637 103.593 35.3527 105.117C34.9691 106.63 34.1325 107.932 32.8429 109.023ZM21.3294 111.236L25.9429 109.207C27.0962 108.699 27.8663 108.066 28.253 107.306C28.6551 106.506 28.6388 105.612 28.204 104.624C27.7692 103.635 27.1212 103.019 26.2601 102.775C25.4265 102.519 24.433 102.644 23.2796 103.152L18.6661 105.181L21.3294 111.236ZM31.5924 120.487C32.7732 119.967 33.5647 119.308 33.9668 118.508C34.3843 117.669 34.3696 116.742 33.9227 115.726C33.4758 114.71 32.7823 114.064 31.8421 113.789C30.9294 113.503 29.8827 113.619 28.7018 114.138L23.594 116.385L26.4022 122.77L31.5924 120.487ZM51.7696 85.677L60.6033 116.007L53.2152 118.159L44.3815 87.8288L51.7696 85.677ZM86.7634 94.6011C88.6316 94.7057 90.2245 95.3844 91.5423 96.6371C92.8554 97.8601 93.6524 99.3758 93.9331 101.184C94.3381 103.793 93.7412 106.011 92.1425 107.838C90.5689 109.63 88.1516 110.78 84.8906 111.286L70.3498 113.543L65.504 82.3269L79.5557 80.1456C82.7277 79.6532 85.3158 79.9952 87.32 81.1717C89.3538 82.3436 90.564 84.1746 90.9506 86.6648C91.2359 88.5028 90.9837 90.1055 90.1941 91.4728C89.4342 92.8355 88.2906 93.8782 86.7634 94.6011ZM75.0683 93.7753L80.0487 93.0022C81.2937 92.8089 82.201 92.3948 82.7703 91.76C83.3647 91.0909 83.5791 90.2227 83.4134 89.1555C83.2477 88.0883 82.7803 87.3259 82.011 86.8685C81.2714 86.4065 80.279 86.2722 79.0339 86.4654L74.0536 87.2386L75.0683 93.7753ZM82.604 105.356C83.8787 105.159 84.8133 104.725 85.4077 104.056C86.0271 103.353 86.2517 102.452 86.0815 101.356C85.9112 100.259 85.4072 99.4566 84.5694 98.9491C83.7613 98.437 82.7199 98.2799 81.4451 98.4777L75.9312 99.3337L77.0011 106.226L82.604 105.356ZM110.991 76.8918L111.79 108.472L104.098 108.666L103.298 77.0866L110.991 76.8918ZM147.518 79.3119L146.922 85.448L138.591 84.6389L136.133 109.945L128.474 109.201L130.932 83.8949L122.601 83.0858L123.197 76.9497L147.518 79.3119Z" fill="#D18E27"/>
<path d="M170.352 116.795L163.739 100.557L160.1 114.024L152.671 112.017L160.911 81.5209L168.34 83.5281L164.725 96.9083L178.506 86.2748L187.237 88.6342L171.383 100.386L179.432 119.248L170.352 116.795ZM207.21 96.2981L199.283 113.456C198.491 115.171 198.303 116.687 198.719 118.003C199.135 119.319 200.161 120.355 201.795 121.11C203.429 121.865 204.896 121.98 206.195 121.457C207.494 120.934 208.54 119.814 209.333 118.098L217.259 100.941L224.245 104.168L216.337 121.285C215.154 123.845 213.609 125.758 211.702 127.025C209.795 128.292 207.708 128.947 205.441 128.99C203.201 129.046 200.951 128.552 198.69 127.508C196.43 126.463 194.602 125.09 193.207 123.388C191.852 121.672 191.066 119.689 190.849 117.441C190.645 115.165 191.134 112.748 192.317 110.188L200.224 93.0709L207.21 96.2981Z" fill="#58C845"/>
</svg>
